# xmcd
#
# Track frame offsets:
#	150
#	15630
#	26955
#	41342
#	55195
#	69590
#	83215
#	100412
#	119002
#	135667
#	154507
#	170890
#	188575
#	203977
#	219892
#	241040
#	258450
#	278487
#	297050
#	317325
#
# Disc length: 4462 seconds
#
# Revision: 1
# Processed by: cddbd v1.5.1PL0 Copyright (c) Steve Scherf et al.
# Submitted via: CDex 1.50Beta5
#
DISCID=16116c14
DTITLE=Various Artist - フォークポップスグラフィティ11
DYEAR=1984
DGENRE=Pop
TTITLE0=赤い鳥/翼をください
TTITLE1=赤い鳥/忘れていた朝
TTITLE2=ガロ/学生街の喫茶店
TTITLE3=ガロ/一枚の楽譜
TTITLE4=荒井由美/やさしさに包まれたなら
TTITLE5=荒井由美/ルージュの伝言
TTITLE6=ハイ・ファイ・セット/冷たい雨
TTITLE7=ハイ・ファイ・セット/土曜の夜は羽田に来るの
TTITLE8=荒井由美/あの日に帰りたい
TTITLE9=荒井由美/卒業写真
TTITLE10=荒井由美/中央フリーウェイ
TTITLE11=サーカス/Mr.サマータイム
TTITLE12=サーカス/アメリカン・フィーリング
TTITLE13=ブレッド＆バター/あの頃のまま
TTITLE14=三好鉄生/涙をふいて
TTITLE15=シーナ＆ザ・ロケット/ユー・メイ・ドリーム
TTITLE16=YMO/Rydeen
TTITLE17=YMO/君に、胸キュン。
TTITLE18=ハイ・ファイ・セット/フィーリング
TTITLE19=ハイ・ファイ・セット/海を見ていた午後
EXTD=
EXTT0=
EXTT1=
EXTT2=
EXTT3=
EXTT4=
EXTT5=
EXTT6=
EXTT7=
EXTT8=
EXTT9=
EXTT10=
EXTT11=
EXTT12=
EXTT13=
EXTT14=
EXTT15=
EXTT16=
EXTT17=
EXTT18=
EXTT19=
PLAYORDER=
